<?xml version="1.0" encoding="UTF-8" standalone="no"?>
<svg
   height="16px"
   viewBox="0 0 16 16"
   width="16px"
   version="1.1"
   id="svg2"
   sodipodi:docname="draw-cube-symbolic.svg"
   xml:space="preserve"
   inkscape:version="1.4 (e7c3feb100, 2024-10-09)"
   xmlns:inkscape="http://www.inkscape.org/namespaces/inkscape"
   xmlns:sodipodi="http://sodipodi.sourceforge.net/DTD/sodipodi-0.dtd"
   xmlns="http://www.w3.org/2000/svg"
   xmlns:svg="http://www.w3.org/2000/svg"><defs
     id="defs2" /><sodipodi:namedview
     id="namedview2"
     pagecolor="#ffffff"
     bordercolor="#000000"
     borderopacity="0.25"
     inkscape:showpageshadow="2"
     inkscape:pageopacity="0.0"
     inkscape:pagecheckerboard="0"
     inkscape:deskcolor="#d1d1d1"
     inkscape:zoom="32"
     inkscape:cx="9.921875"
     inkscape:cy="8.28125"
     inkscape:window-width="2560"
     inkscape:window-height="1371"
     inkscape:window-x="0"
     inkscape:window-y="0"
     inkscape:window-maximized="1"
     inkscape:current-layer="svg2" /><path
     id="path1"
     style="display:none;fill:#222222;fill-opacity:1;stroke:none;stroke-width:0;stroke-dasharray:none"
     d="M 5,1 1,5 v 9.277344 L 0.984375,14.292969 1,14.308594 V 15 h 10 l 4,-4 V 1.7382812 L 15.0078,1.7304712 15,1.7226562 V 1 Z m 1,1 h 7.3 l -3,3 H 6 Z M 5,2.4 V 5 H 2.4 Z m 9,0.3 V 10 H 11 V 5.7 Z M 2,6 h 3 v 4.3 l -3,3 z m 4,0 h 4 v 4 H 6 Z M 5.7,11 H 10 v 3 H 2.7 Z m 5.3,0 h 2.6 L 11,13.6 Z"
     sodipodi:nodetypes="cccccccccccccccccccccccccccccccccccccccccccccc" /><rect
     style="display:none;fill:#222222;stroke-width:0;stroke-dasharray:none;paint-order:markers stroke fill"
     id="rect3"
     width="12"
     height="12"
     x="0"
     y="4" /><path
     id="rect3-6"
     style="fill:#222222;stroke-width:0;stroke-dasharray:none;paint-order:markers stroke fill"
     d="m 0,4 v 12 h 12 l 4,-4 V 0 H 4 Z M 6,2 h 6.5 l -2,2 H 6 Z M 4,2.9 V 4 H 2.9 Z M 14,3.5 V 10 H 12 V 5.5 Z M 2,6 h 2 v 4.5 l -2,2 z m 4,0 h 4 v 4 H 6 Z M 5.5,12 H 10 v 2 H 3.5 Z m 6.5,0 h 1.1 L 12,13.1 Z"
     sodipodi:nodetypes="cccccccccccccccccccccccccccccccccccccccc" /></svg>
